<svg id="dribbble" xmlns="http://www.w3.org/2000/svg" width="40" height="40" viewBox="0 0 40 40">
  <circle id="Ellipse_1" data-name="Ellipse 1" cx="18.75" cy="18.75" r="18.75" transform="translate(1.25 1.115)" fill="#ec407a"/>
  <path id="Path_3" data-name="Path 3" d="M20,0A20,20,0,1,0,40,20,20.023,20.023,0,0,0,20,0ZM37.493,20.15a27.8,27.8,0,0,0-12.715-.4q-.848-2.115-1.83-4.167A37.726,37.726,0,0,0,33.185,8.533,17.4,17.4,0,0,1,37.5,20C37.5,20.05,37.493,20.1,37.493,20.15ZM31.417,6.767a35.177,35.177,0,0,1-9.555,6.6A70.267,70.267,0,0,0,15.338,3.15a17.309,17.309,0,0,1,16.08,3.618ZM12.867,4.035A67.7,67.7,0,0,1,19.53,14.307,35.2,35.2,0,0,1,2.872,16.415,17.552,17.552,0,0,1,12.867,4.035ZM2.5,20c0-.375.033-.743.057-1.11a37.808,37.808,0,0,0,4.435.29,37.642,37.642,0,0,0,13.66-2.608q.9,1.875,1.688,3.8a28.022,28.022,0,0,0-15.3,11.338A17.415,17.415,0,0,1,2.5,20ZM8.863,33.487A25.513,25.513,0,0,1,23.24,22.7a67.6,67.6,0,0,1,3.38,13.49,17.435,17.435,0,0,1-17.757-2.7ZM28.965,35A70.238,70.238,0,0,0,25.7,22.12a25.331,25.331,0,0,1,11.58.545A17.511,17.511,0,0,1,28.965,35Z" fill="#c2185b"/>
</svg>
